<svg xmlns="http://www.w3.org/2000/svg" width="16.008" height="16.004" viewBox="0 0 16.008 16.004">
  <path id="Icon_awesome-instagram" data-name="Icon awesome-instagram" d="M8,6.137a4.1,4.1,0,1,0,4.1,4.1A4.1,4.1,0,0,0,8,6.137Zm0,6.771a2.668,2.668,0,1,1,2.668-2.668A2.673,2.673,0,0,1,8,12.908Zm5.228-6.939a.957.957,0,1,1-.957-.957A.955.955,0,0,1,13.229,5.969Zm2.718.971a4.736,4.736,0,0,0-1.293-3.353A4.768,4.768,0,0,0,11.3,2.294c-1.321-.075-5.282-.075-6.6,0A4.761,4.761,0,0,0,1.344,3.583,4.752,4.752,0,0,0,.051,6.937c-.075,1.321-.075,5.282,0,6.6a4.736,4.736,0,0,0,1.293,3.353A4.774,4.774,0,0,0,4.7,18.186c1.321.075,5.282.075,6.6,0a4.736,4.736,0,0,0,3.353-1.293,4.768,4.768,0,0,0,1.293-3.353c.075-1.321.075-5.278,0-6.6Zm-1.707,8.017a2.7,2.7,0,0,1-1.521,1.521C11.665,16.9,9.165,16.8,8,16.8s-3.668.093-4.718-.321a2.7,2.7,0,0,1-1.521-1.521C1.344,13.9,1.44,11.4,1.44,10.24s-.093-3.668.321-4.718A2.7,2.7,0,0,1,3.283,4C4.336,3.583,6.836,3.68,8,3.68s3.668-.093,4.718.321a2.7,2.7,0,0,1,1.521,1.521c.418,1.054.321,3.553.321,4.718S14.657,13.908,14.239,14.958Z" transform="translate(0.005 -2.238)" fill="#005570"/>
</svg>
